<mxfile host="app.diagrams.net" agent="Mozilla/5.0 (Macintosh; Intel Mac OS X 10_15_7) AppleWebKit/537.36 (KHTML, like Gecko) Chrome/128.0.0.0 Safari/537.36" version="24.7.16">
  <diagram name="第 1 页" id="OaTZjGQZDCG_OUpia3Ur">
    <mxGraphModel dx="1194" dy="1750" grid="1" gridSize="10" guides="1" tooltips="1" connect="1" arrows="1" fold="1" page="1" pageScale="1" pageWidth="827" pageHeight="1169" math="0" shadow="0">
      <root>
        <mxCell id="0" />
        <mxCell id="1" parent="0" />
        <mxCell id="MMuGmOZe-dlmZc0K1PXM-12" value="" style="edgeStyle=orthogonalEdgeStyle;rounded=0;orthogonalLoop=1;jettySize=auto;html=1;" parent="1" source="MMuGmOZe-dlmZc0K1PXM-1" target="MMuGmOZe-dlmZc0K1PXM-11" edge="1">
          <mxGeometry relative="1" as="geometry" />
        </mxCell>
        <mxCell id="MMuGmOZe-dlmZc0K1PXM-19" value="" style="edgeStyle=orthogonalEdgeStyle;rounded=0;orthogonalLoop=1;jettySize=auto;html=1;exitX=0.5;exitY=0;exitDx=0;exitDy=0;" parent="1" source="MMuGmOZe-dlmZc0K1PXM-11" target="MMuGmOZe-dlmZc0K1PXM-18" edge="1">
          <mxGeometry relative="1" as="geometry" />
        </mxCell>
        <mxCell id="MMuGmOZe-dlmZc0K1PXM-21" value="" style="edgeStyle=orthogonalEdgeStyle;rounded=0;orthogonalLoop=1;jettySize=auto;html=1;exitX=0.5;exitY=0;exitDx=0;exitDy=0;" parent="1" source="MMuGmOZe-dlmZc0K1PXM-11" target="MMuGmOZe-dlmZc0K1PXM-20" edge="1">
          <mxGeometry relative="1" as="geometry" />
        </mxCell>
        <mxCell id="MMuGmOZe-dlmZc0K1PXM-1" value="接收算法识别结果" style="rounded=1;whiteSpace=wrap;html=1;" parent="1" vertex="1">
          <mxGeometry x="370" y="190" width="120" height="60" as="geometry" />
        </mxCell>
        <mxCell id="MMuGmOZe-dlmZc0K1PXM-6" style="edgeStyle=orthogonalEdgeStyle;rounded=0;orthogonalLoop=1;jettySize=auto;html=1;exitX=0.5;exitY=0;exitDx=0;exitDy=0;entryX=0.5;entryY=1;entryDx=0;entryDy=0;" parent="1" source="MMuGmOZe-dlmZc0K1PXM-2" target="MMuGmOZe-dlmZc0K1PXM-1" edge="1">
          <mxGeometry relative="1" as="geometry" />
        </mxCell>
        <mxCell id="MMuGmOZe-dlmZc0K1PXM-2" value="表计识别算法" style="rounded=0;whiteSpace=wrap;html=1;" parent="1" vertex="1">
          <mxGeometry x="70" y="420" width="120" height="60" as="geometry" />
        </mxCell>
        <mxCell id="MMuGmOZe-dlmZc0K1PXM-7" style="edgeStyle=orthogonalEdgeStyle;rounded=0;orthogonalLoop=1;jettySize=auto;html=1;exitX=0.5;exitY=0;exitDx=0;exitDy=0;" parent="1" source="MMuGmOZe-dlmZc0K1PXM-3" edge="1">
          <mxGeometry relative="1" as="geometry">
            <mxPoint x="430" y="250" as="targetPoint" />
          </mxGeometry>
        </mxCell>
        <mxCell id="MMuGmOZe-dlmZc0K1PXM-3" value="缺陷识别算法" style="rounded=0;whiteSpace=wrap;html=1;" parent="1" vertex="1">
          <mxGeometry x="260" y="420" width="120" height="60" as="geometry" />
        </mxCell>
        <mxCell id="MMuGmOZe-dlmZc0K1PXM-8" style="edgeStyle=orthogonalEdgeStyle;rounded=0;orthogonalLoop=1;jettySize=auto;html=1;exitX=0.5;exitY=0;exitDx=0;exitDy=0;" parent="1" source="MMuGmOZe-dlmZc0K1PXM-4" edge="1">
          <mxGeometry relative="1" as="geometry">
            <mxPoint x="430" y="250" as="targetPoint" />
          </mxGeometry>
        </mxCell>
        <mxCell id="MMuGmOZe-dlmZc0K1PXM-4" value="形变识别算法" style="rounded=0;whiteSpace=wrap;html=1;" parent="1" vertex="1">
          <mxGeometry x="470" y="420" width="120" height="60" as="geometry" />
        </mxCell>
        <mxCell id="MMuGmOZe-dlmZc0K1PXM-10" style="edgeStyle=orthogonalEdgeStyle;rounded=0;orthogonalLoop=1;jettySize=auto;html=1;exitX=0.5;exitY=0;exitDx=0;exitDy=0;" parent="1" source="MMuGmOZe-dlmZc0K1PXM-5" edge="1">
          <mxGeometry relative="1" as="geometry">
            <mxPoint x="430" y="250" as="targetPoint" />
          </mxGeometry>
        </mxCell>
        <mxCell id="MMuGmOZe-dlmZc0K1PXM-5" value="红外分析算法" style="rounded=0;whiteSpace=wrap;html=1;" parent="1" vertex="1">
          <mxGeometry x="650" y="420" width="120" height="60" as="geometry" />
        </mxCell>
        <mxCell id="MMuGmOZe-dlmZc0K1PXM-25" style="edgeStyle=orthogonalEdgeStyle;rounded=0;orthogonalLoop=1;jettySize=auto;html=1;exitX=0.5;exitY=0;exitDx=0;exitDy=0;entryX=0.5;entryY=1;entryDx=0;entryDy=0;" parent="1" source="MMuGmOZe-dlmZc0K1PXM-11" target="MMuGmOZe-dlmZc0K1PXM-24" edge="1">
          <mxGeometry relative="1" as="geometry" />
        </mxCell>
        <mxCell id="MMuGmOZe-dlmZc0K1PXM-27" style="edgeStyle=orthogonalEdgeStyle;rounded=0;orthogonalLoop=1;jettySize=auto;html=1;exitX=0.5;exitY=0;exitDx=0;exitDy=0;entryX=0.5;entryY=1;entryDx=0;entryDy=0;" parent="1" source="MMuGmOZe-dlmZc0K1PXM-11" target="MMuGmOZe-dlmZc0K1PXM-26" edge="1">
          <mxGeometry relative="1" as="geometry" />
        </mxCell>
        <mxCell id="MMuGmOZe-dlmZc0K1PXM-11" value="入库PointHistory表" style="whiteSpace=wrap;html=1;rounded=1;" parent="1" vertex="1">
          <mxGeometry x="365" y="50" width="130" height="60" as="geometry" />
        </mxCell>
        <mxCell id="MMuGmOZe-dlmZc0K1PXM-33" style="edgeStyle=orthogonalEdgeStyle;rounded=0;orthogonalLoop=1;jettySize=auto;html=1;exitX=0.5;exitY=0;exitDx=0;exitDy=0;" parent="1" source="MMuGmOZe-dlmZc0K1PXM-18" edge="1">
          <mxGeometry relative="1" as="geometry">
            <mxPoint x="430" y="-280" as="targetPoint" />
          </mxGeometry>
        </mxCell>
        <mxCell id="MMuGmOZe-dlmZc0K1PXM-18" value="缺陷表" style="rounded=1;whiteSpace=wrap;html=1;" parent="1" vertex="1">
          <mxGeometry x="650" y="-130" width="120" height="60" as="geometry" />
        </mxCell>
        <mxCell id="MMuGmOZe-dlmZc0K1PXM-32" style="edgeStyle=orthogonalEdgeStyle;rounded=0;orthogonalLoop=1;jettySize=auto;html=1;exitX=0.5;exitY=0;exitDx=0;exitDy=0;" parent="1" source="MMuGmOZe-dlmZc0K1PXM-20" edge="1">
          <mxGeometry relative="1" as="geometry">
            <mxPoint x="430" y="-280" as="targetPoint" />
          </mxGeometry>
        </mxCell>
        <mxCell id="MMuGmOZe-dlmZc0K1PXM-20" value="刀闸表" style="rounded=1;whiteSpace=wrap;html=1;" parent="1" vertex="1">
          <mxGeometry x="470" y="-130" width="120" height="60" as="geometry" />
        </mxCell>
        <mxCell id="MMuGmOZe-dlmZc0K1PXM-31" style="edgeStyle=orthogonalEdgeStyle;rounded=0;orthogonalLoop=1;jettySize=auto;html=1;exitX=0.5;exitY=0;exitDx=0;exitDy=0;" parent="1" source="MMuGmOZe-dlmZc0K1PXM-24" edge="1">
          <mxGeometry relative="1" as="geometry">
            <mxPoint x="430" y="-280" as="targetPoint" />
          </mxGeometry>
        </mxCell>
        <mxCell id="MMuGmOZe-dlmZc0K1PXM-24" value="形变表" style="rounded=1;whiteSpace=wrap;html=1;" parent="1" vertex="1">
          <mxGeometry x="280" y="-130" width="120" height="60" as="geometry" />
        </mxCell>
        <mxCell id="MMuGmOZe-dlmZc0K1PXM-30" style="edgeStyle=orthogonalEdgeStyle;rounded=0;orthogonalLoop=1;jettySize=auto;html=1;exitX=0.5;exitY=0;exitDx=0;exitDy=0;" parent="1" source="MMuGmOZe-dlmZc0K1PXM-26" target="MMuGmOZe-dlmZc0K1PXM-29" edge="1">
          <mxGeometry relative="1" as="geometry" />
        </mxCell>
        <mxCell id="MMuGmOZe-dlmZc0K1PXM-26" value="红外分析" style="rounded=1;whiteSpace=wrap;html=1;" parent="1" vertex="1">
          <mxGeometry x="90" y="-130" width="120" height="60" as="geometry" />
        </mxCell>
        <mxCell id="MMuGmOZe-dlmZc0K1PXM-36" style="edgeStyle=orthogonalEdgeStyle;rounded=0;orthogonalLoop=1;jettySize=auto;html=1;exitX=0.5;exitY=0;exitDx=0;exitDy=0;entryX=0.5;entryY=1;entryDx=0;entryDy=0;" parent="1" source="MMuGmOZe-dlmZc0K1PXM-29" target="MMuGmOZe-dlmZc0K1PXM-35" edge="1">
          <mxGeometry relative="1" as="geometry" />
        </mxCell>
        <mxCell id="MMuGmOZe-dlmZc0K1PXM-39" style="edgeStyle=orthogonalEdgeStyle;rounded=0;orthogonalLoop=1;jettySize=auto;html=1;exitX=0.5;exitY=0;exitDx=0;exitDy=0;" parent="1" source="MMuGmOZe-dlmZc0K1PXM-29" target="MMuGmOZe-dlmZc0K1PXM-38" edge="1">
          <mxGeometry relative="1" as="geometry" />
        </mxCell>
        <mxCell id="MMuGmOZe-dlmZc0K1PXM-40" value="如果是形变告警" style="edgeLabel;html=1;align=center;verticalAlign=middle;resizable=0;points=[];" parent="MMuGmOZe-dlmZc0K1PXM-39" vertex="1" connectable="0">
          <mxGeometry x="0.0452" y="2" relative="1" as="geometry">
            <mxPoint as="offset" />
          </mxGeometry>
        </mxCell>
        <mxCell id="MMuGmOZe-dlmZc0K1PXM-29" value="检查是否报警" style="rounded=1;whiteSpace=wrap;html=1;" parent="1" vertex="1">
          <mxGeometry x="370" y="-340" width="120" height="60" as="geometry" />
        </mxCell>
        <mxCell id="MMuGmOZe-dlmZc0K1PXM-35" value="入库pointAlarmHistory" style="rounded=1;whiteSpace=wrap;html=1;" parent="1" vertex="1">
          <mxGeometry x="370" y="-510" width="120" height="60" as="geometry" />
        </mxCell>
        <mxCell id="MMuGmOZe-dlmZc0K1PXM-38" value="入库形变deformationAlarmHistory" style="rounded=1;whiteSpace=wrap;html=1;" parent="1" vertex="1">
          <mxGeometry x="140" y="-510" width="160" height="60" as="geometry" />
        </mxCell>
      </root>
    </mxGraphModel>
  </diagram>
</mxfile>
